Coordinates
version=1
nRows=4
nColumns=114
inDegrees=yes

Units are S.I. units (second, meters, Newtons, ...)
If the header above contains a line with 'inDegrees', this indicates whether rotational values are in degrees (yes) or radians (no).

endheader 
time	pelvis_tilt	pelvis_list	pelvis_rotation	pelvis_tx	pelvis_ty	pelvis_tz	hip_flexion_l	hip_adduction_l	hip_rotation_l	hip_flexion_r	hip_adduction_r	hip_rotation_r	knee_angle_l	knee_angle_r	ankle_angle_l	ankle_angle_r	subtalar_angle_l	subtalar_angle_r	mtp_angle_l	mtp_angle_r	lumbar_extension	lumbar_bending	lumbar_rotation	arm_flex_l	arm_add_l	arm_rot_l	arm_flex_r	arm_add_r	arm_rot_r	elbow_flex_l	elbow_flex_r	pro_sup_l	pro_sup_r	addbrev_l/activation	addlong_l/activation	addmagDist_l/activation	addmagIsch_l/activation	addmagMid_l/activation	addmagProx_l/activation	bflh_l/activation	bfsh_l/activation	edl_l/activation	ehl_l/activation	fdl_l/activation	fhl_l/activation	gaslat_l/activation	gasmed_l/activation	glmax1_l/activation	glmax2_l/activation	glmax3_l/activation	glmed1_l/activation	glmed2_l/activation	glmed3_l/activation	glmin1_l/activation	glmin2_l/activation	glmin3_l/activation	grac_l/activation	iliacus_l/activation	perbrev_l/activation	perlong_l/activation	piri_l/activation	psoas_l/activation	recfem_l/activation	sart_l/activation	semimem_l/activation	semiten_l/activation	soleus_l/activation	tfl_l/activation	tibant_l/activation	tibpost_l/activation	vasint_l/activation	vaslat_l/activation	vasmed_l/activation	addbrev_r/activation	addlong_r/activation	addmagDist_r/activation	addmagIsch_r/activation	addmagMid_r/activation	addmagProx_r/activation	bflh_r/activation	bfsh_r/activation	edl_r/activation	ehl_r/activation	fdl_r/activation	fhl_r/activation	gaslat_r/activation	gasmed_r/activation	glmax1_r/activation	glmax2_r/activation	glmax3_r/activation	glmed1_r/activation	glmed2_r/activation	glmed3_r/activation	glmin1_r/activation	glmin2_r/activation	glmin3_r/activation	grac_r/activation	iliacus_r/activation	perbrev_r/activation	perlong_r/activation	piri_r/activation	psoas_r/activation	recfem_r/activation	sart_r/activation	semimem_r/activation	semiten_r/activation	soleus_r/activation	tfl_r/activation	tibant_r/activation	tibpost_r/activation	vasint_r/activation	vaslat_r/activation	vasmed_r/activation	
         11.10000000	          9.57175911	         -0.68202974	        -67.85302593	         -2.41196973	          1.39917687	         -0.05747181	         19.76627870	        -28.33512884	        -28.14445911	         31.00740139	        -19.81894237	         11.30698364	         37.70167574	         55.51846545	        -15.24177704	          0.11612797	        -26.30504957	        -29.57262279	          0.09505181	         -0.21186977	         -3.58951622	         28.58088083	        -34.52876793	       -118.52341687	        -74.24693723	        426.00388407	       -308.34915200	        -18.45555421	         95.72665003	        -12.66214572	        112.83546886	        107.28319951	        118.03235575	          0.43567619	          0.65555763	          0.26569429	          0.03016391	          0.42394237	          0.51438473	          0.32145393	          0.10471769	          0.19241828	          0.08826503	          0.01047224	          0.01016101	          0.02972811	          0.02984687	          0.01003451	          0.01001842	          0.11134654	          0.01001683	          0.01002676	          0.01002930	          0.01005273	          0.01005348	          0.02156852	          0.26272636	          0.05234507	          0.04615076	          0.06137019	          0.05471352	          0.53430871	          0.01001405	          0.16179299	          0.12281661	          0.13575864	          0.01001159	          0.01004343	          0.34543929	          0.01011577	          0.01001784	          0.01000589	          0.01001310	          0.06531423	          0.10807816	          0.01210507	          0.01011449	          0.05168867	          0.15832081	          0.39324798	          0.38600949	          0.18045359	          0.03248262	          0.01709337	          0.01130144	          0.15230794	          0.15809261	          0.01354958	          0.02474864	          0.11064209	          0.01008247	          0.01016863	          0.01039184	          0.01018644	          0.01039567	          0.02420591	          0.23620484	          0.01790633	          0.05157483	          0.14191739	          0.04713780	          0.21643443	          0.13571612	          0.65640725	          0.19704129	          0.14321585	          0.07500218	          0.01950609	          0.04172203	          0.01551532	          0.01001951	          0.01000972	          0.01001337	
         11.11000000	          9.85053569	         -0.70161902	        -65.46741821	         -2.36141158	          1.39156602	         -0.05488906	         19.06099354	        -25.91005992	        -27.90872517	         27.64212456	        -21.85115491	         12.40924491	         38.24186501	         54.73408635	        -13.26554047	         -6.66943174	        -26.35979175	        -32.74697722	          0.11384745	         -0.12956867	          0.89130571	         29.81404339	        -34.85741528	       -133.03634153	        -67.96926820	        410.14228121	       -292.44806646	        -21.66327766	         82.93304835	        -32.86295363	        128.84574502	        108.45010758	        117.48343587	          0.36421381	          0.54631332	          0.30167849	          0.14554398	          0.36801945	          0.49106565	          0.26791257	          0.08727495	          0.19741784	          0.07389567	          0.01044572	          0.01012832	          0.02477529	          0.02487324	          0.01004390	          0.01002272	          0.45151025	          0.01001554	          0.01002702	          0.01003285	          0.01004583	          0.01004669	          0.01798015	          0.21966575	          0.04363406	          0.05142685	          0.07568755	          0.04563636	          0.44527290	          0.01003686	          0.13483276	          0.10272028	          0.11323299	          0.01000750	          0.01003136	          0.31778705	          0.01011491	          0.01121350	          0.01055317	          0.01077367	          0.05443923	          0.09007783	          0.01012210	          0.01009120	          0.04307881	          0.13194385	          0.32771178	          0.32183741	          0.18338829	          0.02707501	          0.01447941	          0.01449628	          0.12706660	          0.23683129	          0.01216091	          0.02064019	          0.09220466	          0.01013752	          0.01033936	          0.01148747	          0.01031396	          0.01280040	          0.02268463	          0.19689695	          0.22876087	          0.04299227	          0.11827559	          0.03935641	          0.44527940	          0.15247808	          0.55044714	          0.16422436	          0.11936415	          0.20613843	          0.15153180	          0.03476966	          0.01446453	          0.01003426	          0.01001178	          0.01002509	
         11.12000000	         10.06327943	         -0.67919608	        -63.13051300	         -2.30954821	          1.38400048	         -0.05208993	         17.98739536	        -23.19732277	        -27.36962272	         24.00660445	        -23.64933715	         13.38037024	         38.26709967	         53.89918876	        -11.33310965	        -13.52997836	        -26.25208109	        -34.53817169	          0.13215131	         -0.02402536	          5.63157523	         30.69426257	        -33.53590029	       -137.44226843	        -67.51238295	        431.92750109	       -279.27158708	        -27.28731947	         52.50810753	        -32.96650011	        137.74993133	        109.67442944	        116.97458049	          0.30358137	          0.45528334	          0.25145537	          0.12140765	          0.30673348	          0.40930393	          0.22327383	          0.07273901	          0.17057115	          0.06364968	          0.01032325	          0.01011710	          0.02064821	          0.02072867	          0.01005905	          0.01002980	          0.37643128	          0.01001776	          0.01003244	          0.01004230	          0.01005046	          0.01005237	          0.01499085	          0.21301875	          0.03637149	          0.04499620	          0.06558494	          0.03808321	          0.37107123	          0.01003705	          0.11236585	          0.12361327	          0.09446607	          0.01000834	          0.01003388	          0.26517134	          0.01008168	          0.03480864	          0.03679562	          0.03899972	          0.04538379	          0.07515485	          0.01008233	          0.01010576	          0.03590501	          0.10996402	          0.27309852	          0.34316151	          0.29863628	          0.02256704	          0.01208497	          0.01210164	          0.15353748	          0.36693351	          0.01040488	          0.01721248	          0.07683993	          0.01014226	          0.01028262	          0.01060003	          0.01040934	          0.02608004	          0.01940674	          0.16419732	          0.48892508	          0.03585404	          0.09857114	          0.03282767	          0.64050641	          0.15437601	          0.53011475	          0.13685884	          0.09949295	          0.23619739	          0.13120834	          0.02897557	          0.01205931	          0.01003060	          0.01001095	          0.01002243	
         11.13000000	         10.20577917	         -0.63365497	        -60.81693109	         -2.25773205	          1.37588028	         -0.04974959	         16.69156974	        -20.35089934	        -26.51861521	         20.42705912	        -25.04590593	         14.36438339	         37.76467115	         53.34166371	         -9.62038456	        -19.98273226	        -25.98867641	        -34.99548324	          0.14007109	          0.05574530	         10.62710550	         31.22357747	        -31.15419248	       -164.10731724	        -72.59244540	        455.36186612	       -265.81885639	        -31.03678666	         13.40734220	        -19.97003721	        128.28532538	        110.46633190	        117.36737079	          0.25301281	          0.37941150	          0.20957402	          0.10124203	          0.25563461	          0.34112481	          0.24335065	          0.06062502	          0.14238814	          0.05310106	          0.01050414	          0.01010107	          0.01720937	          0.01727498	          0.01005673	          0.01002538	          0.33198167	          0.01002018	          0.01002943	          0.01002695	          0.01006122	          0.01004963	          0.01250202	          0.17790890	          0.03031737	          0.03763393	          0.09942034	          0.03180842	          0.30923360	          0.01001631	          0.09364343	          0.13396704	          0.07879149	          0.01000424	          0.01002837	          0.22101850	          0.01011275	          0.02907171	          0.03068157	          0.03254504	          0.03783827	          0.06265978	          0.01005094	          0.01006539	          0.02992761	          0.09164670	          0.22758781	          0.34831349	          0.30576645	          0.01881012	          0.01010574	          0.01012173	          0.25241706	          0.53912155	          0.01135022	          0.01435678	          0.06403588	          0.01653204	          0.01428179	          0.01429024	          0.03188863	          0.05485174	          0.01645364	          0.13689431	          0.57028431	          0.02988867	          0.08214571	          0.02737608	          0.58211879	          0.15061081	          0.59787284	          0.12005329	          0.08293274	          0.24632963	          0.15908930	          0.02414714	          0.01005867	          0.01001768	          0.01000630	          0.01001310	
